<svg width="14" height="12" viewBox="0 0 14 12" fill="none" xmlns="http://www.w3.org/2000/svg">
<path d="M12.72 0.759976C12.71 0.762476 12.7 0.766226 12.69 0.769976C12.6063 0.791226 12.5338 0.844976 12.49 0.919976L5.95 11.06L1.45 6.99998C1.37125 6.89998 1.24 6.85623 1.11625 6.88873C0.992504 6.92123 0.901254 7.02498 0.882504 7.15123C0.863754 7.27748 0.921254 7.40248 1.03 7.46998L5.8 11.79C5.87 11.8512 5.96375 11.8787 6.05625 11.865C6.14875 11.8512 6.23 11.7987 6.28 11.72L13.03 1.25998C13.1038 1.15498 13.1075 1.01623 13.04 0.907476C12.9725 0.798726 12.8463 0.741226 12.72 0.759976Z" fill="#62D488"/>
</svg>
